<?xml version="1.0" encoding="UTF-8" standalone="no"?>
<!DOCTYPE svg PUBLIC "-//W3C//DTD SVG 1.1//EN"
 "http://www.w3.org/Graphics/SVG/1.1/DTD/svg11.dtd">
<!-- Generated by graphviz version 2.42.3 (20191010.1750)
 -->
<!-- Title: snakemake_dag Pages: 1 -->
<svg width="298pt" height="620pt"
 viewBox="0.00 0.00 298.00 620.00" xmlns="http://www.w3.org/2000/svg" xmlns:xlink="http://www.w3.org/1999/xlink">
<g id="graph0" class="graph" transform="scale(1 1) rotate(0) translate(4 616)">
<title>snakemake_dag</title>
<polygon fill="white" stroke="transparent" points="-4,4 -4,-616 294,-616 294,4 -4,4"/>
<!-- 0 -->
<g id="node1" class="node">
<title>0</title>
<path fill="none" stroke="#d88556" stroke-width="2" d="M162.5,-36C162.5,-36 132.5,-36 132.5,-36 126.5,-36 120.5,-30 120.5,-24 120.5,-24 120.5,-12 120.5,-12 120.5,-6 126.5,0 132.5,0 132.5,0 162.5,0 162.5,0 168.5,0 174.5,-6 174.5,-12 174.5,-12 174.5,-24 174.5,-24 174.5,-30 168.5,-36 162.5,-36"/>
<text text-anchor="middle" x="147.5" y="-15.5" font-family="sans" font-size="10.00">all</text>
</g>
<!-- 1 -->
<g id="node2" class="node">
<title>1</title>
<path fill="none" stroke="#5682d8" stroke-width="2" d="M126.5,-108C126.5,-108 60.5,-108 60.5,-108 54.5,-108 48.5,-102 48.5,-96 48.5,-96 48.5,-84 48.5,-84 48.5,-78 54.5,-72 60.5,-72 60.5,-72 126.5,-72 126.5,-72 132.5,-72 138.5,-78 138.5,-84 138.5,-84 138.5,-96 138.5,-96 138.5,-102 132.5,-108 126.5,-108"/>
<text text-anchor="middle" x="93.5" y="-87.5" font-family="sans" font-size="10.00">visualize_trees</text>
</g>
<!-- 1&#45;&gt;0 -->
<g id="edge1" class="edge">
<title>1&#45;&gt;0</title>
<path fill="none" stroke="grey" stroke-width="2" d="M106.85,-71.7C113.26,-63.39 121.06,-53.28 128.11,-44.14"/>
<polygon fill="grey" stroke="grey" stroke-width="2" points="130.97,-46.16 134.31,-36.1 125.43,-41.88 130.97,-46.16"/>
</g>
<!-- 2 -->
<g id="node3" class="node">
<title>2</title>
<path fill="none" stroke="#d85656" stroke-width="2" d="M130,-180C130,-180 43,-180 43,-180 37,-180 31,-174 31,-168 31,-168 31,-156 31,-156 31,-150 37,-144 43,-144 43,-144 130,-144 130,-144 136,-144 142,-150 142,-156 142,-156 142,-168 142,-168 142,-174 136,-180 130,-180"/>
<text text-anchor="middle" x="86.5" y="-159.5" font-family="sans" font-size="10.00">run_raxml_genome</text>
</g>
<!-- 2&#45;&gt;1 -->
<g id="edge3" class="edge">
<title>2&#45;&gt;1</title>
<path fill="none" stroke="grey" stroke-width="2" d="M88.23,-143.7C89,-135.98 89.93,-126.71 90.79,-118.11"/>
<polygon fill="grey" stroke="grey" stroke-width="2" points="94.28,-118.4 91.79,-108.1 87.31,-117.71 94.28,-118.4"/>
</g>
<!-- 11 -->
<g id="node12" class="node">
<title>11</title>
<path fill="none" stroke="#56d882" stroke-width="2" d="M234,-108C234,-108 169,-108 169,-108 163,-108 157,-102 157,-96 157,-96 157,-84 157,-84 157,-78 163,-72 169,-72 169,-72 234,-72 234,-72 240,-72 246,-78 246,-84 246,-84 246,-96 246,-96 246,-102 240,-108 234,-108"/>
<text text-anchor="middle" x="201.5" y="-87.5" font-family="sans" font-size="10.00">compare_trees</text>
</g>
<!-- 2&#45;&gt;11 -->
<g id="edge16" class="edge">
<title>2&#45;&gt;11</title>
<path fill="none" stroke="grey" stroke-width="2" d="M114.63,-143.88C129.67,-134.72 148.37,-123.34 164.56,-113.48"/>
<polygon fill="grey" stroke="grey" stroke-width="2" points="166.54,-116.38 173.26,-108.19 162.9,-110.4 166.54,-116.38"/>
</g>
<!-- 3 -->
<g id="node4" class="node">
<title>3</title>
<path fill="none" stroke="#d6d856" stroke-width="2" d="M199.5,-252C199.5,-252 95.5,-252 95.5,-252 89.5,-252 83.5,-246 83.5,-240 83.5,-240 83.5,-228 83.5,-228 83.5,-222 89.5,-216 95.5,-216 95.5,-216 199.5,-216 199.5,-216 205.5,-216 211.5,-222 211.5,-228 211.5,-228 211.5,-240 211.5,-240 211.5,-246 205.5,-252 199.5,-252"/>
<text text-anchor="middle" x="147.5" y="-231.5" font-family="sans" font-size="10.00">rename_fasta_headers</text>
</g>
<!-- 3&#45;&gt;2 -->
<g id="edge5" class="edge">
<title>3&#45;&gt;2</title>
<path fill="none" stroke="grey" stroke-width="2" d="M132.42,-215.7C125.11,-207.3 116.19,-197.07 108.16,-187.86"/>
<polygon fill="grey" stroke="grey" stroke-width="2" points="110.61,-185.34 101.41,-180.1 105.34,-189.94 110.61,-185.34"/>
</g>
<!-- 10 -->
<g id="node11" class="node">
<title>10</title>
<path fill="none" stroke="#59d856" stroke-width="2" d="M246.5,-180C246.5,-180 172.5,-180 172.5,-180 166.5,-180 160.5,-174 160.5,-168 160.5,-168 160.5,-156 160.5,-156 160.5,-150 166.5,-144 172.5,-144 172.5,-144 246.5,-144 246.5,-144 252.5,-144 258.5,-150 258.5,-156 258.5,-156 258.5,-168 258.5,-168 258.5,-174 252.5,-180 246.5,-180"/>
<text text-anchor="middle" x="209.5" y="-159.5" font-family="sans" font-size="10.00">run_raxml_spike</text>
</g>
<!-- 3&#45;&gt;10 -->
<g id="edge15" class="edge">
<title>3&#45;&gt;10</title>
<path fill="none" stroke="grey" stroke-width="2" d="M162.83,-215.7C170.26,-207.3 179.32,-197.07 187.48,-187.86"/>
<polygon fill="grey" stroke="grey" stroke-width="2" points="190.34,-189.91 194.35,-180.1 185.1,-185.27 190.34,-189.91"/>
</g>
<!-- 4 -->
<g id="node5" class="node">
<title>4</title>
<path fill="none" stroke="#afd856" stroke-width="2" d="M129,-396C129,-396 12,-396 12,-396 6,-396 0,-390 0,-384 0,-384 0,-372 0,-372 0,-366 6,-360 12,-360 12,-360 129,-360 129,-360 135,-360 141,-366 141,-372 141,-372 141,-384 141,-384 141,-390 135,-396 129,-396"/>
<text text-anchor="middle" x="70.5" y="-375.5" font-family="sans" font-size="10.00">preprocess_genome_msa</text>
</g>
<!-- 4&#45;&gt;3 -->
<g id="edge6" class="edge">
<title>4&#45;&gt;3</title>
<path fill="none" stroke="grey" stroke-width="2" d="M79.79,-359.87C93.08,-335.35 117.66,-290.03 133.26,-261.26"/>
<polygon fill="grey" stroke="grey" stroke-width="2" points="136.49,-262.65 138.18,-252.19 130.34,-259.31 136.49,-262.65"/>
</g>
<!-- 5 -->
<g id="node6" class="node">
<title>5</title>
<path fill="none" stroke="#56a9d8" stroke-width="2" d="M187,-612C187,-612 108,-612 108,-612 102,-612 96,-606 96,-600 96,-600 96,-588 96,-588 96,-582 102,-576 108,-576 108,-576 187,-576 187,-576 193,-576 199,-582 199,-588 199,-588 199,-600 199,-600 199,-606 193,-612 187,-612"/>
<text text-anchor="middle" x="147.5" y="-591.5" font-family="sans" font-size="10.00">decompress_data</text>
</g>
<!-- 5&#45;&gt;4 -->
<g id="edge8" class="edge">
<title>5&#45;&gt;4</title>
<path fill="none" stroke="grey" stroke-width="2" d="M118.94,-575.87C106.5,-566.83 93.06,-554.58 85.5,-540 63.35,-497.27 64.14,-439.56 67.08,-406.1"/>
<polygon fill="grey" stroke="grey" stroke-width="2" points="70.56,-406.44 68.08,-396.14 63.6,-405.74 70.56,-406.44"/>
</g>
<!-- 7 -->
<g id="node8" class="node">
<title>7</title>
<path fill="none" stroke="#80d856" stroke-width="2" d="M188,-540C188,-540 107,-540 107,-540 101,-540 95,-534 95,-528 95,-528 95,-516 95,-516 95,-510 101,-504 107,-504 107,-504 188,-504 188,-504 194,-504 200,-510 200,-516 200,-516 200,-528 200,-528 200,-534 194,-540 188,-540"/>
<text text-anchor="middle" x="147.5" y="-519.5" font-family="sans" font-size="10.00">obtain_isolate_ids</text>
</g>
<!-- 5&#45;&gt;7 -->
<g id="edge11" class="edge">
<title>5&#45;&gt;7</title>
<path fill="none" stroke="grey" stroke-width="2" d="M147.5,-575.7C147.5,-567.98 147.5,-558.71 147.5,-550.11"/>
<polygon fill="grey" stroke="grey" stroke-width="2" points="151,-550.1 147.5,-540.1 144,-550.1 151,-550.1"/>
</g>
<!-- 9 -->
<g id="node10" class="node">
<title>9</title>
<path fill="none" stroke="#d8ac56" stroke-width="2" d="M278,-396C278,-396 171,-396 171,-396 165,-396 159,-390 159,-384 159,-384 159,-372 159,-372 159,-366 165,-360 171,-360 171,-360 278,-360 278,-360 284,-360 290,-366 290,-372 290,-372 290,-384 290,-384 290,-390 284,-396 278,-396"/>
<text text-anchor="middle" x="224.5" y="-375.5" font-family="sans" font-size="10.00">preprocess_spike_fasta</text>
</g>
<!-- 5&#45;&gt;9 -->
<g id="edge13" class="edge">
<title>5&#45;&gt;9</title>
<path fill="none" stroke="grey" stroke-width="2" d="M175.25,-575.99C187.57,-566.9 200.96,-554.58 208.5,-540 230.53,-497.41 230.29,-440.03 227.69,-406.53"/>
<polygon fill="grey" stroke="grey" stroke-width="2" points="231.14,-405.78 226.75,-396.13 224.17,-406.41 231.14,-405.78"/>
</g>
<!-- 6 -->
<g id="node7" class="node">
<title>6</title>
<path fill="none" stroke="#56d8a9" stroke-width="2" d="M187,-468C187,-468 108,-468 108,-468 102,-468 96,-462 96,-456 96,-456 96,-444 96,-444 96,-438 102,-432 108,-432 108,-432 187,-432 187,-432 193,-432 199,-438 199,-444 199,-444 199,-456 199,-456 199,-462 193,-468 187,-468"/>
<text text-anchor="middle" x="147.5" y="-447.5" font-family="sans" font-size="10.00">obtain_paired_ids</text>
</g>
<!-- 6&#45;&gt;4 -->
<g id="edge9" class="edge">
<title>6&#45;&gt;4</title>
<path fill="none" stroke="grey" stroke-width="2" d="M128.47,-431.7C118.96,-423.05 107.29,-412.45 96.93,-403.03"/>
<polygon fill="grey" stroke="grey" stroke-width="2" points="99.07,-400.24 89.31,-396.1 94.36,-405.42 99.07,-400.24"/>
</g>
<!-- 6&#45;&gt;9 -->
<g id="edge14" class="edge">
<title>6&#45;&gt;9</title>
<path fill="none" stroke="grey" stroke-width="2" d="M166.53,-431.7C176.04,-423.05 187.71,-412.45 198.07,-403.03"/>
<polygon fill="grey" stroke="grey" stroke-width="2" points="200.64,-405.42 205.69,-396.1 195.93,-400.24 200.64,-405.42"/>
</g>
<!-- 7&#45;&gt;6 -->
<g id="edge10" class="edge">
<title>7&#45;&gt;6</title>
<path fill="none" stroke="grey" stroke-width="2" d="M147.5,-503.7C147.5,-495.98 147.5,-486.71 147.5,-478.11"/>
<polygon fill="grey" stroke="grey" stroke-width="2" points="151,-478.1 147.5,-468.1 144,-478.1 151,-478.1"/>
</g>
<!-- 8 -->
<g id="node9" class="node">
<title>8</title>
<path fill="none" stroke="#56d8d8" stroke-width="2" d="M240,-324C240,-324 169,-324 169,-324 163,-324 157,-318 157,-312 157,-312 157,-300 157,-300 157,-294 163,-288 169,-288 169,-288 240,-288 240,-288 246,-288 252,-294 252,-300 252,-300 252,-312 252,-312 252,-318 246,-324 240,-324"/>
<text text-anchor="middle" x="204.5" y="-303.5" font-family="sans" font-size="10.00">run_mafft_spike</text>
</g>
<!-- 8&#45;&gt;3 -->
<g id="edge7" class="edge">
<title>8&#45;&gt;3</title>
<path fill="none" stroke="grey" stroke-width="2" d="M190.41,-287.7C183.58,-279.3 175.24,-269.07 167.74,-259.86"/>
<polygon fill="grey" stroke="grey" stroke-width="2" points="170.46,-257.65 161.43,-252.1 165.03,-262.07 170.46,-257.65"/>
</g>
<!-- 9&#45;&gt;8 -->
<g id="edge12" class="edge">
<title>9&#45;&gt;8</title>
<path fill="none" stroke="grey" stroke-width="2" d="M219.56,-359.7C217.33,-351.9 214.65,-342.51 212.17,-333.83"/>
<polygon fill="grey" stroke="grey" stroke-width="2" points="215.5,-332.76 209.39,-324.1 208.77,-334.68 215.5,-332.76"/>
</g>
<!-- 10&#45;&gt;1 -->
<g id="edge4" class="edge">
<title>10&#45;&gt;1</title>
<path fill="none" stroke="grey" stroke-width="2" d="M181.12,-143.88C165.96,-134.72 147.09,-123.34 130.76,-113.48"/>
<polygon fill="grey" stroke="grey" stroke-width="2" points="132.36,-110.36 121.99,-108.19 128.74,-116.35 132.36,-110.36"/>
</g>
<!-- 10&#45;&gt;11 -->
<g id="edge17" class="edge">
<title>10&#45;&gt;11</title>
<path fill="none" stroke="grey" stroke-width="2" d="M207.52,-143.7C206.64,-135.98 205.58,-126.71 204.6,-118.11"/>
<polygon fill="grey" stroke="grey" stroke-width="2" points="208.07,-117.64 203.45,-108.1 201.11,-118.44 208.07,-117.64"/>
</g>
<!-- 11&#45;&gt;0 -->
<g id="edge2" class="edge">
<title>11&#45;&gt;0</title>
<path fill="none" stroke="grey" stroke-width="2" d="M188.15,-71.7C181.74,-63.39 173.94,-53.28 166.89,-44.14"/>
<polygon fill="grey" stroke="grey" stroke-width="2" points="169.57,-41.88 160.69,-36.1 164.03,-46.16 169.57,-41.88"/>
</g>
</g>
</svg>
