<?xml version="1.0" encoding="UTF-8" standalone="no"?>
<!DOCTYPE svg PUBLIC "-//W3C//DTD SVG 1.1//EN"
 "http://www.w3.org/Graphics/SVG/1.1/DTD/svg11.dtd">
<!-- Generated by graphviz version 2.42.3 (20191010.1750)
 -->
<!-- Title: snakemake_dag Pages: 1 -->
<svg width="269pt" height="548pt"
 viewBox="0.00 0.00 269.00 548.00" xmlns="http://www.w3.org/2000/svg" xmlns:xlink="http://www.w3.org/1999/xlink">
<g id="graph0" class="graph" transform="scale(1 1) rotate(0) translate(4 544)">
<title>snakemake_dag</title>
<polygon fill="white" stroke="transparent" points="-4,4 -4,-544 265,-544 265,4 -4,4"/>
<!-- 0 -->
<g id="node1" class="node">
<title>0</title>
<path fill="none" stroke="#5682d8" stroke-width="2" stroke-dasharray="5,2" d="M153.5,-36C153.5,-36 123.5,-36 123.5,-36 117.5,-36 111.5,-30 111.5,-24 111.5,-24 111.5,-12 111.5,-12 111.5,-6 117.5,0 123.5,0 123.5,0 153.5,0 153.5,0 159.5,0 165.5,-6 165.5,-12 165.5,-12 165.5,-24 165.5,-24 165.5,-30 159.5,-36 153.5,-36"/>
<text text-anchor="middle" x="138.5" y="-15.5" font-family="sans" font-size="10.00">all</text>
</g>
<!-- 1 -->
<g id="node2" class="node">
<title>1</title>
<path fill="none" stroke="#80d856" stroke-width="2" stroke-dasharray="5,2" d="M117.5,-108C117.5,-108 51.5,-108 51.5,-108 45.5,-108 39.5,-102 39.5,-96 39.5,-96 39.5,-84 39.5,-84 39.5,-78 45.5,-72 51.5,-72 51.5,-72 117.5,-72 117.5,-72 123.5,-72 129.5,-78 129.5,-84 129.5,-84 129.5,-96 129.5,-96 129.5,-102 123.5,-108 117.5,-108"/>
<text text-anchor="middle" x="84.5" y="-87.5" font-family="sans" font-size="10.00">visualize_trees</text>
</g>
<!-- 1&#45;&gt;0 -->
<g id="edge1" class="edge">
<title>1&#45;&gt;0</title>
<path fill="none" stroke="grey" stroke-width="2" d="M97.85,-71.7C104.26,-63.39 112.06,-53.28 119.11,-44.14"/>
<polygon fill="grey" stroke="grey" stroke-width="2" points="121.97,-46.16 125.31,-36.1 116.43,-41.88 121.97,-46.16"/>
</g>
<!-- 2 -->
<g id="node3" class="node">
<title>2</title>
<path fill="none" stroke="#56d882" stroke-width="2" stroke-dasharray="5,2" d="M121,-180C121,-180 34,-180 34,-180 28,-180 22,-174 22,-168 22,-168 22,-156 22,-156 22,-150 28,-144 34,-144 34,-144 121,-144 121,-144 127,-144 133,-150 133,-156 133,-156 133,-168 133,-168 133,-174 127,-180 121,-180"/>
<text text-anchor="middle" x="77.5" y="-159.5" font-family="sans" font-size="10.00">run_raxml_genome</text>
</g>
<!-- 2&#45;&gt;1 -->
<g id="edge3" class="edge">
<title>2&#45;&gt;1</title>
<path fill="none" stroke="grey" stroke-width="2" d="M79.23,-143.7C80,-135.98 80.93,-126.71 81.79,-118.11"/>
<polygon fill="grey" stroke="grey" stroke-width="2" points="85.28,-118.4 82.79,-108.1 78.31,-117.71 85.28,-118.4"/>
</g>
<!-- 10 -->
<g id="node11" class="node">
<title>10</title>
<path fill="none" stroke="#d88556" stroke-width="2" stroke-dasharray="5,2" d="M225,-108C225,-108 160,-108 160,-108 154,-108 148,-102 148,-96 148,-96 148,-84 148,-84 148,-78 154,-72 160,-72 160,-72 225,-72 225,-72 231,-72 237,-78 237,-84 237,-84 237,-96 237,-96 237,-102 231,-108 225,-108"/>
<text text-anchor="middle" x="192.5" y="-87.5" font-family="sans" font-size="10.00">compare_trees</text>
</g>
<!-- 2&#45;&gt;10 -->
<g id="edge13" class="edge">
<title>2&#45;&gt;10</title>
<path fill="none" stroke="grey" stroke-width="2" d="M105.63,-143.88C120.67,-134.72 139.37,-123.34 155.56,-113.48"/>
<polygon fill="grey" stroke="grey" stroke-width="2" points="157.54,-116.38 164.26,-108.19 153.9,-110.4 157.54,-116.38"/>
</g>
<!-- 3 -->
<g id="node4" class="node">
<title>3</title>
<path fill="none" stroke="#d85656" stroke-width="2" stroke-dasharray="5,2" d="M190.5,-252C190.5,-252 86.5,-252 86.5,-252 80.5,-252 74.5,-246 74.5,-240 74.5,-240 74.5,-228 74.5,-228 74.5,-222 80.5,-216 86.5,-216 86.5,-216 190.5,-216 190.5,-216 196.5,-216 202.5,-222 202.5,-228 202.5,-228 202.5,-240 202.5,-240 202.5,-246 196.5,-252 190.5,-252"/>
<text text-anchor="middle" x="138.5" y="-231.5" font-family="sans" font-size="10.00">rename_fasta_headers</text>
</g>
<!-- 3&#45;&gt;2 -->
<g id="edge5" class="edge">
<title>3&#45;&gt;2</title>
<path fill="none" stroke="grey" stroke-width="2" d="M123.42,-215.7C116.11,-207.3 107.19,-197.07 99.16,-187.86"/>
<polygon fill="grey" stroke="grey" stroke-width="2" points="101.61,-185.34 92.41,-180.1 96.34,-189.94 101.61,-185.34"/>
</g>
<!-- 9 -->
<g id="node10" class="node">
<title>9</title>
<path fill="none" stroke="#56d8a9" stroke-width="2" stroke-dasharray="5,2" d="M237.5,-180C237.5,-180 163.5,-180 163.5,-180 157.5,-180 151.5,-174 151.5,-168 151.5,-168 151.5,-156 151.5,-156 151.5,-150 157.5,-144 163.5,-144 163.5,-144 237.5,-144 237.5,-144 243.5,-144 249.5,-150 249.5,-156 249.5,-156 249.5,-168 249.5,-168 249.5,-174 243.5,-180 237.5,-180"/>
<text text-anchor="middle" x="200.5" y="-159.5" font-family="sans" font-size="10.00">run_raxml_spike</text>
</g>
<!-- 3&#45;&gt;9 -->
<g id="edge12" class="edge">
<title>3&#45;&gt;9</title>
<path fill="none" stroke="grey" stroke-width="2" d="M153.83,-215.7C161.26,-207.3 170.32,-197.07 178.48,-187.86"/>
<polygon fill="grey" stroke="grey" stroke-width="2" points="181.34,-189.91 185.35,-180.1 176.1,-185.27 181.34,-189.91"/>
</g>
<!-- 4 -->
<g id="node5" class="node">
<title>4</title>
<path fill="none" stroke="#d8ac56" stroke-width="2" stroke-dasharray="5,2" d="M129,-324C129,-324 12,-324 12,-324 6,-324 0,-318 0,-312 0,-312 0,-300 0,-300 0,-294 6,-288 12,-288 12,-288 129,-288 129,-288 135,-288 141,-294 141,-300 141,-300 141,-312 141,-312 141,-318 135,-324 129,-324"/>
<text text-anchor="middle" x="70.5" y="-303.5" font-family="sans" font-size="10.00">preprocess_genome_msa</text>
</g>
<!-- 4&#45;&gt;3 -->
<g id="edge6" class="edge">
<title>4&#45;&gt;3</title>
<path fill="none" stroke="grey" stroke-width="2" d="M87.31,-287.7C95.63,-279.14 105.81,-268.66 114.89,-259.3"/>
<polygon fill="grey" stroke="grey" stroke-width="2" points="117.43,-261.72 121.88,-252.1 112.41,-256.84 117.43,-261.72"/>
</g>
<!-- 5 -->
<g id="node6" class="node">
<title>5</title>
<path fill="none" stroke="#59d856" stroke-width="2" stroke-dasharray="5,2" d="M178,-468C178,-468 99,-468 99,-468 93,-468 87,-462 87,-456 87,-456 87,-444 87,-444 87,-438 93,-432 99,-432 99,-432 178,-432 178,-432 184,-432 190,-438 190,-444 190,-444 190,-456 190,-456 190,-462 184,-468 178,-468"/>
<text text-anchor="middle" x="138.5" y="-447.5" font-family="sans" font-size="10.00">obtain_paired_ids</text>
</g>
<!-- 5&#45;&gt;4 -->
<g id="edge8" class="edge">
<title>5&#45;&gt;4</title>
<path fill="none" stroke="grey" stroke-width="2" d="M130.3,-431.87C118.56,-407.35 96.85,-362.03 83.07,-333.26"/>
<polygon fill="grey" stroke="grey" stroke-width="2" points="86.21,-331.7 78.73,-324.19 79.89,-334.72 86.21,-331.7"/>
</g>
<!-- 8 -->
<g id="node9" class="node">
<title>8</title>
<path fill="none" stroke="#56d8d8" stroke-width="2" stroke-dasharray="5,2" d="M249,-396C249,-396 142,-396 142,-396 136,-396 130,-390 130,-384 130,-384 130,-372 130,-372 130,-366 136,-360 142,-360 142,-360 249,-360 249,-360 255,-360 261,-366 261,-372 261,-372 261,-384 261,-384 261,-390 255,-396 249,-396"/>
<text text-anchor="middle" x="195.5" y="-375.5" font-family="sans" font-size="10.00">preprocess_spike_fasta</text>
</g>
<!-- 5&#45;&gt;8 -->
<g id="edge11" class="edge">
<title>5&#45;&gt;8</title>
<path fill="none" stroke="grey" stroke-width="2" d="M152.59,-431.7C159.42,-423.3 167.76,-413.07 175.26,-403.86"/>
<polygon fill="grey" stroke="grey" stroke-width="2" points="177.97,-406.07 181.57,-396.1 172.54,-401.65 177.97,-406.07"/>
</g>
<!-- 6 -->
<g id="node7" class="node">
<title>6</title>
<path fill="none" stroke="#d6d856" stroke-width="2" stroke-dasharray="5,2" d="M179,-540C179,-540 98,-540 98,-540 92,-540 86,-534 86,-528 86,-528 86,-516 86,-516 86,-510 92,-504 98,-504 98,-504 179,-504 179,-504 185,-504 191,-510 191,-516 191,-516 191,-528 191,-528 191,-534 185,-540 179,-540"/>
<text text-anchor="middle" x="138.5" y="-519.5" font-family="sans" font-size="10.00">obtain_isolate_ids</text>
</g>
<!-- 6&#45;&gt;5 -->
<g id="edge9" class="edge">
<title>6&#45;&gt;5</title>
<path fill="none" stroke="grey" stroke-width="2" d="M138.5,-503.7C138.5,-495.98 138.5,-486.71 138.5,-478.11"/>
<polygon fill="grey" stroke="grey" stroke-width="2" points="142,-478.1 138.5,-468.1 135,-478.1 142,-478.1"/>
</g>
<!-- 7 -->
<g id="node8" class="node">
<title>7</title>
<path fill="none" stroke="#56a9d8" stroke-width="2" stroke-dasharray="5,2" d="M242,-324C242,-324 171,-324 171,-324 165,-324 159,-318 159,-312 159,-312 159,-300 159,-300 159,-294 165,-288 171,-288 171,-288 242,-288 242,-288 248,-288 254,-294 254,-300 254,-300 254,-312 254,-312 254,-318 248,-324 242,-324"/>
<text text-anchor="middle" x="206.5" y="-303.5" font-family="sans" font-size="10.00">run_mafft_spike</text>
</g>
<!-- 7&#45;&gt;3 -->
<g id="edge7" class="edge">
<title>7&#45;&gt;3</title>
<path fill="none" stroke="grey" stroke-width="2" d="M189.69,-287.7C181.37,-279.14 171.19,-268.66 162.11,-259.3"/>
<polygon fill="grey" stroke="grey" stroke-width="2" points="164.59,-256.84 155.12,-252.1 159.57,-261.72 164.59,-256.84"/>
</g>
<!-- 8&#45;&gt;7 -->
<g id="edge10" class="edge">
<title>8&#45;&gt;7</title>
<path fill="none" stroke="grey" stroke-width="2" d="M198.22,-359.7C199.43,-351.98 200.89,-342.71 202.24,-334.11"/>
<polygon fill="grey" stroke="grey" stroke-width="2" points="205.72,-334.53 203.81,-324.1 198.8,-333.44 205.72,-334.53"/>
</g>
<!-- 9&#45;&gt;1 -->
<g id="edge4" class="edge">
<title>9&#45;&gt;1</title>
<path fill="none" stroke="grey" stroke-width="2" d="M172.12,-143.88C156.96,-134.72 138.09,-123.34 121.76,-113.48"/>
<polygon fill="grey" stroke="grey" stroke-width="2" points="123.36,-110.36 112.99,-108.19 119.74,-116.35 123.36,-110.36"/>
</g>
<!-- 9&#45;&gt;10 -->
<g id="edge14" class="edge">
<title>9&#45;&gt;10</title>
<path fill="none" stroke="grey" stroke-width="2" d="M198.52,-143.7C197.64,-135.98 196.58,-126.71 195.6,-118.11"/>
<polygon fill="grey" stroke="grey" stroke-width="2" points="199.07,-117.64 194.45,-108.1 192.11,-118.44 199.07,-117.64"/>
</g>
<!-- 10&#45;&gt;0 -->
<g id="edge2" class="edge">
<title>10&#45;&gt;0</title>
<path fill="none" stroke="grey" stroke-width="2" d="M179.15,-71.7C172.74,-63.39 164.94,-53.28 157.89,-44.14"/>
<polygon fill="grey" stroke="grey" stroke-width="2" points="160.57,-41.88 151.69,-36.1 155.03,-46.16 160.57,-41.88"/>
</g>
</g>
</svg>
